<svg width="53" height="53" viewBox="0 0 53 53" fill="none" xmlns="http://www.w3.org/2000/svg">
<g id="Group">
<path id="Vector" d="M12.402 31.8169C12.8536 30.8947 13.3241 29.9819 13.8087 29.0691C10.4918 29.7043 7.24545 30.0854 3.77798 30.4901C3.6933 30.4995 3.60861 30.5042 3.52392 30.5042C2.43711 30.5042 1.49614 29.6902 1.3644 28.5797C1.22326 27.3846 2.07954 26.3071 3.27457 26.1659C7.94647 25.6201 12.1996 25.1214 16.7539 23.9403C18.5559 21.0231 20.5366 18.1717 22.7055 15.3768C26.7941 10.1163 30.8496 6.09331 34.877 3.29838C35.545 2.83256 36.1943 2.43262 36.8248 2.07972C33.649 0.74343 30.1627 0 26.4976 0C11.8656 0 0 11.8667 0 26.5C0 33.6049 2.79938 40.0464 7.34896 44.8034C8.11114 41.4862 9.80018 37.1574 12.402 31.8169Z" fill="white"/>
<path id="Vector_2" d="M38.3962 6.70501C36.7259 8.1307 34.7781 10.1493 32.5527 12.7513C30.3274 15.358 28.1208 18.1858 25.9377 21.2301C29.6263 19.6868 32.8256 17.7671 35.5262 15.4662C38.2268 13.1653 40.2169 10.7468 41.4919 8.21069C42.3764 6.39917 42.4423 5.31226 41.7037 4.95466C41.1673 4.69587 40.0664 5.27932 38.3962 6.70501Z" fill="white"/>
<path id="Vector_3" d="M46.3616 8.96338C46.2157 9.32568 46.0558 9.69269 45.8723 10.0738C42.8235 16.3271 36.1756 21.4417 25.9426 25.4224C25.8579 25.4694 25.7732 25.5165 25.6791 25.5541C24.4794 26.0435 23.322 26.4716 22.1928 26.8575C20.5038 29.5818 19.13 32.0285 18.0761 34.1977C16.5847 37.2561 15.1591 40.4415 13.7947 43.7635C12.6326 46.5913 12.1433 48.2946 12.3127 48.8828C12.4585 48.9769 12.6044 49.0757 12.7549 49.1651C13.6065 49.2168 14.7074 47.8711 16.053 45.1139C17.1822 42.7989 18.1184 40.4839 18.8618 38.1642C19.6052 35.8492 20.2968 33.3554 20.9366 30.6923C21.0966 30.2923 21.4589 29.8641 22.0329 29.4077C22.6021 28.9513 23.2044 28.6031 23.8395 28.3584C24.47 28.1185 24.9499 28.0761 25.2792 28.2314C25.872 28.5231 26.5683 28.8995 27.3729 29.3607C27.6269 29.5206 27.928 29.6853 28.2856 29.8594C29.4712 30.4382 30.8403 30.9793 32.3976 31.478C32.647 31.5627 32.9151 31.6568 33.1974 31.7603C33.4797 31.8592 33.7526 31.9768 34.0208 32.1085C34.8488 32.5132 34.9618 33.3413 34.3548 34.5882C33.2116 36.9314 30.798 37.2043 27.1235 35.4116C26.4131 35.0634 25.4533 34.4329 24.2488 33.5107C23.736 35.5387 23.0585 37.736 22.2211 40.0981C21.3789 42.4601 20.6073 44.3704 19.8969 45.8244C18.8148 48.0405 17.6621 49.7626 16.4341 51.0142C19.5393 52.2894 22.9409 52.9999 26.5025 52.9999C41.1392 52.9999 53.0001 41.1332 53.0001 26.4999C53.0001 19.7761 50.4877 13.6404 46.3616 8.96338Z" fill="white"/>
</g>
</svg>
