<svg width="16" height="15" viewBox="0 0 16 15" fill="none" xmlns="http://www.w3.org/2000/svg">
<g id="Group 769">
<g id="Group">
<g id="Group_2">
<path id="Vector" d="M3.23789 5.21729H1.23899C0.963024 5.21729 0.739258 5.43932 0.739258 5.71322V13.648C0.739258 13.9218 0.962991 14.1439 1.23899 14.1439H3.23786C3.51382 14.1439 3.73759 13.9219 3.73759 13.648V5.71319C3.73759 5.43932 3.51389 5.21729 3.23789 5.21729Z" fill="#667CA6"/>
</g>
</g>
<g id="Group_3">
<g id="Group_4">
<path id="Vector_2" d="M15.4771 6.53239C15.389 5.76308 14.6648 5.21781 13.8846 5.21781H9.98841C10.3195 4.62944 10.4972 2.96533 10.4894 2.28553C10.4763 1.16028 9.53726 0.258545 8.40331 0.258545H7.99093C7.71472 0.258545 7.49117 0.480349 7.49117 0.754485C7.49117 1.90128 7.04119 3.97123 6.19253 4.81343C5.62131 5.38028 5.13299 5.58569 4.49268 5.90325V13.3446C5.47301 13.6688 6.71772 14.1445 8.61492 14.1445H11.884C12.9612 14.1445 13.8001 13.1545 13.3827 12.1085C14.0186 11.9366 14.4876 11.3578 14.4876 10.673C14.4876 10.4797 14.45 10.2948 14.3822 10.1248C15.4538 9.83503 15.8483 8.52192 15.1045 7.69744C15.3777 7.3945 15.5284 6.98013 15.4771 6.53239Z" fill="#667CA6"/>
</g>
</g>
</g>
</svg>
