<svg width="15" height="15" viewBox="0 0 15 15" fill="none" xmlns="http://www.w3.org/2000/svg">
<g id="Group 770">
<g id="Group">
<g id="Group_2">
<path id="Vector" d="M11.6155 9.15039L13.6145 9.15039C13.8905 9.15039 14.1143 8.92836 14.1143 8.65445L14.1143 0.71972C14.1143 0.445848 13.8905 0.223783 13.6145 0.223783L11.6155 0.223783C11.3395 0.223783 11.1157 0.445815 11.1157 0.71972L11.1157 8.65449C11.1157 8.92836 11.3395 9.15039 11.6155 9.15039Z" fill="#667CA6"/>
</g>
</g>
<g id="Group_3">
<g id="Group_4">
<path id="Vector_2" d="M0.375031 7.83602C0.455164 8.60533 1.1135 9.1506 1.82279 9.1506L5.36475 9.1506C5.06374 9.73897 4.90217 11.4031 4.90933 12.0829C4.92121 13.2081 5.77488 14.1099 6.80574 14.1099L7.18062 14.1099C7.43173 14.1099 7.63495 13.8881 7.63495 13.6139C7.63495 12.4671 8.04402 10.3972 8.81553 9.55498C9.33482 8.98813 9.77874 8.78272 10.3608 8.46517L10.3608 1.02383C9.46963 0.699575 8.33808 0.22393 6.61337 0.22393L3.64148 0.22393C2.66225 0.22393 1.8996 1.21393 2.27905 2.25992C1.70095 2.43183 1.27461 3.01059 1.27461 3.69541C1.27461 3.88867 1.30877 4.07365 1.37043 4.24364C0.39622 4.53339 0.0376272 5.84649 0.713794 6.67097C0.465382 6.97392 0.328388 7.38829 0.375031 7.83602Z" fill="#667CA6"/>
</g>
</g>
</g>
</svg>
